{"title":"Dirty Heroes (1967) DVDRip - Hardcoded NL subs","uid":8210634,"size":1722382762,"categoryP":"video","categoryS":"movies","magnet":"?xt=urn:btih:82ac8e32128f7315c6affab044174869932cfca1&amp;dn=Dirty+Heroes+%281967%29+DVDRip+-+Hardcoded+NL+subs&amp;tr=udp%3A%2F%2Ftracker.openbittorrent.com%3A80&amp;tr=udp%3A%2F%2Fopen.demonii.com%3A1337&amp;tr=udp%3A%2F%2Ftracker.coppersurfer.tk%3A6969&amp;tr=udp%3A%2F%2Fexodus.desync.com%3A6969","seeders":0,"leechers":3,"uploader":"RadioResearch","files":3,"time":1362231437,"description":"*******************************************************************************\n                              Dirty Heroes (1967)\n*******************************************************************************\n\n-------------------------------------------------------------------------------\n                              General Information\n-------------------------------------------------------------------------------\nType.................: Movie\n\n\n\nVideo Format.........: AVI\nVideo Bitrate........: 1980\nResolution...........: 352 x 264\nColor................: 8 bit\nFPS..................: 25.0\nSource...............: DVD 4x3\nOriginal Format......: PAL\nGenre................: War\nIMDb Rating..........: 4.8\nMovie Information....: http://www.imdb.com/title/tt0062855/\n\n-------------------------------------------------------------------------------\n                               Post Information\n-------------------------------------------------------------------------------\nPosted by............: RadioResearch\nPosted on............: 3/2/2013\n\n-------------------------------------------------------------------------------\n                                 Release Notes\n-------------------------------------------------------------------------------\nSEEDBOX SUPPORTED!\n\nHolland. Spring 1945. Two armies face each other in the final confrontation of \nWorld War II. On the one hand are the powerful forces of the Allies, on the \nother, all that remains of the Third Reich. The scene is set for the Battle of \nthe Ardennes.  With Frederick Stafford and Curd Juergens!\n\nOriginal Title:  Dalle Ardenne all'inferno\n\nNOTE THAT THIS RELEASE HAS HARDCODED NL SUBS!\n\nThis is an obscure and somewhat rare Macaroni Combat film.  The plot is meh and \nsometimes the acting is wooden, but near the end, there are some pretty decent \nbattle scenes (I saw the same three tanks advance several times, LOL).  I have \nbeen looking for this for some time.  Quality is about an A=9 and V=8.5 and \nlooks like the DVD was made from a VHS, but no tape tracking issues.\n\nEnjoy!\n\nRadioResearch\n\nGeneral\nComplete name                            : H:Dirty Heroes (1967) DVDRip - \nHardcoded NL subsHeroes_dirty_Title1.avi\nFormat                                   : AVI\nFormat/Info                              : Audio Video Interleave\nFormat profile                           : OpenDML\nFile size                                : 1.60 GiB\nDuration                                 : 1h 55mn\nOverall bit rate                         : 1 980 Kbps\nMovie name                               : Heroes_dirty\nWriting application                      : MEncoder 5.0\nWriting library                          : [= DigiArty videodll! =]\n\nVideo\nID                                       : 0\nFormat                                   : MPEG-4 Visual\nFormat profile                           : Simple@L1\nFormat settings, BVOP                    : No\nFormat settings, QPel                    : No\nFormat settings, GMC                     : No warppoints\nFormat settings, Matrix                  : Default (H.263)\nCodec ID                                 : DX50\nCodec ID/Hint                            : DivX 5\nDuration                                 : 1h 55mn\nBit rate                                 : 1 718 Kbps\nWidth                                    : 352 pixels\nHeight                                   : 264 pixels\nDisplay aspect ratio                     : 4:3\nFrame rate                               : 25.000 fps\nColor space                              : YUV\nChroma subsampling                       : 4:2:0\nBit depth                                : 8 bits\nScan type                                : Progressive\nCompression mode                         : Lossy\nBits/(Pixel*Frame)                       : 0.740\nStream size                              : 1.39 GiB (87%)\nWriting library                          : Lavc54.71.100\n\nAudio\nID                                       : 1\nFormat                                   : AC-3\nFormat/Info                              : Audio Coding 3\nMode extension                           : CM (complete main)\nFormat settings, Endianness              : Big\nCodec ID                                 : 2000\nDuration                                 : 1h 55mn\nBit rate mode                            : Constant\nBit rate                                 : 256 Kbps\nChannel(s)                               : 2 channels\nChannel positions                        : Front: L R\nSampling rate                            : 48.0 KHz\nBit depth                                : 16 bits\nCompression mode                         : Lossy\nStream size                              : 212 MiB (13%)\nAlignment                                : Split accross interleaves\nInterleave, duration                     : 500 ms (12.50 video frames)\nInterleave, preload duration             : 500 ms\n\n\n\n\n\n\n-------------------------------------------------------------------------------\nGenerated with Cool NFO Creator - http://fly.to/coolbeans\n-------------------------------------------------------------------------------\n","torrent":{"xt":"urn:btih:82ac8e32128f7315c6affab044174869932cfca1","amp;dn":"Dirty+Heroes+%281967%29+DVDRip+-+Hardcoded+NL+subs","amp;tr":["udp%3A%2F%2Ftracker.openbittorrent.com%3A80","udp%3A%2F%2Fopen.demonii.com%3A1337","udp%3A%2F%2Ftracker.coppersurfer.tk%3A6969","udp%3A%2F%2Fexodus.desync.com%3A6969"],"infoHash":"82ac8e32128f7315c6affab044174869932cfca1","infoHashBuffer":{"type":"Buffer","data":[130,172,142,50,18,143,115,21,198,175,250,176,68,23,72,105,147,44,252,161]},"announce":[],"urlList":[]}}